<svg id="Laag_1" xmlns="http://www.w3.org/2000/svg" viewBox="0 0 460.4 460.4"><style>.st0{fill:#fff}</style><path class="st0" d="M460.4 86.4c-17.7 7.9-35.5 11.8-55.2 15.7 19.7-11.8 35.5-29.5 41.4-53.2-17.7 9.9-39.4 17.7-59.1 23.6-17.7-17.7-41.4-29.5-69-29.5-53.2 0-94.6 41.4-94.6 94.6 0 7.9 0 13.8 2 21.7-78.8-3.9-147.8-41.4-195-98.5-7.9 13.8-11.8 29.6-11.8 47.3 0 33.5 15.8 61.1 41.4 78.8-15.7-2-29.5-5.9-43.3-11.8v2c0 45.3 33.5 84.7 76.8 92.6-7.9 0-17.7 2-25.6 2-5.9 0-11.8 0-17.7-2 11.8 37.4 47.3 65 88.7 65-31.5 25.6-72.9 41.4-118.2 41.4-7.9 0-15.8 0-21.7-2 41.4 27.6 90.6 43.3 145.8 43.3 173.4 0 269.9-143.8 269.9-269.9v-11.8c15.6-13.9 31.4-29.7 45.2-49.3"/></svg>