<?xml version="1.0" encoding="utf-8"?>
<!-- Generator: Adobe Illustrator 22.1.0, SVG Export Plug-In . SVG Version: 6.00 Build 0)  -->
<svg version="1.1" id="Layer_1" xmlns="http://www.w3.org/2000/svg" xmlns:xlink="http://www.w3.org/1999/xlink" x="0px" y="0px"
	 viewBox="0 0 140 140" style="enable-background:new 0 0 140 140;" xml:space="preserve">
<style type="text/css">
	.path{fill:#fff;}
</style>
<g>
	<g>
		<path d="M70.5,78.6c-10.3-9.6-18.9-17.8-27.8-26c-8.2-7.8-16.4-15.3-26-24.2h108.6c-9.6,8.9-18.2,16.4-26.4,24.2
			C90.1,60.7,80.9,68.9,70.5,78.6z" fill="white"/>
		<path d="M120.7,30.1c-8.2,7.5-15.7,14.6-23.1,21C89.1,59,80.1,66.8,70.2,76.1C60.2,66.8,52,59,43.8,51.1
			C36.7,44.4,29.6,37.6,21,29.8h99.7 M130,26.6c-43.8,0-73.7,0-117.5,0c22.1,20.3,36.3,34.2,58,54.5C92.3,60.7,107.9,46.9,130,26.6
			L130,26.6z"  fill="white"/>
	</g>
	<g>
		<path d="M18.2,115.6l44.9-29.9l6.1,5.7c0.4,0.4,0.7,0.4,1.1,0.4c0.4,0,0.7,0,1.1-0.4l6.4-5.7l43.8,31L18.2,115.6z"  fill="white"/>
		<path d="M63.1,87.8l5.3,4.6c0.7,0.7,1.4,1.1,2.5,1.1c0.7,0,1.8-0.4,2.5-1.1l5.3-4.6l38.1,27.1l-92.2-1.1L63.1,87.8 M77.7,83.5
			l-7.5,6.4l-7.1-6.4l-50.9,33.8l115.4,1.1L77.7,83.5L77.7,83.5z"  fill="white"/>
	</g>
	<g>
		<path d="M136.8,114.5c-8.5-5.7-17.1-11.8-25.3-17.8c-8.5-6.1-17.1-12.5-26-18.5c8.9-8.2,17.4-16,26-24.2
			c8.2-7.8,16.7-15.3,25.3-23.1V114.5z"  fill="white"/>
		<path d="M135,35.1v76.2c-7.5-5.3-15-10.7-22.4-15.7c-7.8-5.7-16-11.4-24.2-17.1c8.2-7.8,16.4-15.3,24.6-22.8
			C120.4,48.6,127.5,41.9,135,35.1 M138.6,26.9c-19.2,17.8-36.7,34.2-55.9,51.6c19.2,12.8,36.7,26.7,55.9,39.2
			C138.6,87.5,138.6,57.2,138.6,26.9L138.6,26.9z"  fill="white"/>
	</g>
	<g>
		<path d="M3.2,30.8c8.5,7.8,42.4,39.2,51.3,47.4c-8.9,6.1-17.8,12.5-26,18.5c-8.2,6.1-16.4,12.1-25.3,17.8V30.8z"  fill="white"/>
		<path d="M5,35.1c7.5,6.8,14.6,13.5,22.1,20.3c8.2,7.5,16.4,15,24.6,22.8c-8.2,5.7-16.4,11.4-24.2,17.1C20.3,100.6,12.8,106,5,111
			L5,35.1 M1.4,26.9c0,30.3,0,60.5,0,90.8C20.7,104.9,38.1,91,57.4,78.6C38.1,60.7,20.7,44.7,1.4,26.9L1.4,26.9z"  fill="white"/>
	</g>
</g>
</svg>
