<svg xmlns="http://www.w3.org/2000/svg" viewBox="0 0 280 34.87"><title>logo-volkskrant</title><g id="Layer_2" data-name="Layer 2"><g id="Laag_1" data-name="Laag 1"><path d="M23,31V0H10.72V1.27h1.49c2.27,0,2.6.22,2.6,1.74V20.1a10.32,10.32,0,0,0-6-1.75C4.43,18.35,0,21.47,0,26.57S4.47,34.8,8.86,34.8a9.21,9.21,0,0,0,6.32-2v1.48H26.5V32.93h-.86C23.37,32.93,23,32.71,23,31Zm-8.15-3.24c0,2.76-.26,3.61-1,4.24a3.56,3.56,0,0,1-2.34.86c-2.79,0-2.87-2.2-2.87-6.29,0-4.39.19-6.29,2.87-6.29a3.78,3.78,0,0,1,2.34.86c.78.63,1,1.49,1,4.28Z"/><path d="M48.38,26.91c-.11-5.47-3.83-8.53-10.42-8.56-6.89,0-11.2,3.2-11.2,8.3,0,4.94,4.54,8.22,11.35,8.22,4.35,0,7.92-1.64,10.16-4.54l-.86-.86a10.33,10.33,0,0,1-7.74,4c-4.39,0-4.76-2.49-4.76-5.73v-.78ZM34.91,25.08a14.27,14.27,0,0,1,.33-4,2.42,2.42,0,0,1,2.5-1.45,2.41,2.41,0,0,1,2.49,1.45,14.27,14.27,0,0,1,.33,4v.45H34.91Z"/><path d="M79.45,1.56a7.45,7.45,0,0,1,2-.15h.34V.15H71.12V1.41h.26c3.09,0,3.9.38,3.9,1.64a13.8,13.8,0,0,1-1.37,4.06L66.58,23.63,58.69,6a8.44,8.44,0,0,1-1.08-3.16,1.33,1.33,0,0,1,1.26-1.34A11.28,11.28,0,0,1,61,1.34h.63V.07H43V1.34h1.15c1.64,0,2.24.15,2.68.67a6.61,6.61,0,0,1,.93,1.64L61.89,34.27h1.82l14-30.51C78.37,2.2,78.75,1.79,79.45,1.56Z"/><path d="M83.21,18.27c-7,0-11.54,3.24-11.54,8.3s4.47,8.3,11.54,8.3,11.54-3.2,11.54-8.34C94.75,21.55,90.21,18.31,83.21,18.27Zm3,9.23A19.08,19.08,0,0,1,85.89,32a2.69,2.69,0,0,1-2.68,1.53A2.63,2.63,0,0,1,80.53,32a18.8,18.8,0,0,1-.33-4.54V25.38a15.82,15.82,0,0,1,.33-4.21,2.68,2.68,0,0,1,2.68-1.52,2.64,2.64,0,0,1,2.68,1.52,15.45,15.45,0,0,1,.34,4.21Z"/><path d="M106.88,31.22V0H94.56V1.3h1.49c2.27,0,2.6.23,2.6,1.75V31.26c0,1.53-.33,1.75-2.6,1.75h-.86v1.26h15.19V33h-.86C107.25,33,106.88,32.79,106.88,31.22Z"/><path d="M139.55,33a3.53,3.53,0,0,1-1.08-.15c-.33-.07-.7-.45-1.26-1.12l-7.48-9.41c1.79-1.3,4.28-1.94,8.19-2V19h-12v1.26h1.16a3.83,3.83,0,0,1,1.63.15.74.74,0,0,1,.45.63c0,.38-.19.67-.78,1.19-.34.3-1,.82-1.49,1.16l-3.65,2.68V0H110.94V1.3h1.48c2.27,0,2.61.23,2.61,1.75v28c0,1.72-.34,1.94-2.61,1.94h-.85v1.26h14.77V33h-.44c-2.27,0-2.65-.26-2.65-2V26.79L129,34.31h11.09V33A2,2,0,0,1,139.55,33Z"/><path d="M155.11,24.3l-2.05-.78c-2-.78-2.49-1.19-2.49-2s.71-1.31,2.05-1.31a6.6,6.6,0,0,1,4,1.31,2.41,2.41,0,0,1,.74,2.16v.37h1.12V19h-1.12c-.11.41-.26.63-.74.63a2.93,2.93,0,0,1-1.12-.22,18.45,18.45,0,0,0-5.77-.93c-5.13,0-8.33,2-8.33,5.39,0,2.31,1.52,3.8,5.28,5.51l1.19.56c1.38.63,1.9,1.11,1.9,1.82s-.71,1.27-2.08,1.27A6.68,6.68,0,0,1,143,31.11a3.63,3.63,0,0,1-.71-2.53v-.15h-1.15v5.84h1.15c0-.74.19-1,.63-1a2,2,0,0,1,.64.19A21.92,21.92,0,0,0,151,34.76c5.43,0,8.7-2.16,8.7-5.66C159.72,26.83,158.57,25.57,155.11,24.3Z"/><path d="M187.86,33.05a3.48,3.48,0,0,1-1.08-.15c-.34-.08-.71-.45-1.27-1.12L178,22.37c1.79-1.31,4.28-1.94,8.19-2.05V19.05h-12v1.27h1.11a3.9,3.9,0,0,1,1.64.15.74.74,0,0,1,.45.63c0,.37-.19.67-.78,1.19-.34.3-1,.82-1.49,1.15l-3.65,2.68V.07H159.2V1.34h1.49c2.27,0,2.61.22,2.61,1.75v28c0,1.71-.34,1.94-2.61,1.94h-.85v1.26h14.73V33.05h-.44c-2.27,0-2.65-.26-2.65-2V26.83l5.77,7.48h11.13V33.05A2.59,2.59,0,0,1,187.86,33.05Z"/><path d="M206.69,18.38c-2.76,0-4.88,1.75-6,4.66v-4H189.2v1.27h1c2.27,0,2.6.22,2.6,1.75v9.19c0,1.53-.33,1.75-2.6,1.75h-.63v1.26h15V33h-1c-2.27,0-2.64-.26-2.64-1.79h0V28.1a14.61,14.61,0,0,1,.26-3.28,8.7,8.7,0,0,1,.89-2.08c.38-.6.75-.9,1-.9.07,0,.22.08.22.19s0,.11-.11.37a3.09,3.09,0,0,0-.34,1.53c0,2.31,1.79,3.94,4.32,3.94s4.39-1.82,4.39-4.61A4.53,4.53,0,0,0,206.69,18.38Z"/><path d="M233,31V25.9a10.85,10.85,0,0,0-.22-3.27,5.29,5.29,0,0,0-.93-1.79c-1.3-1.64-3.72-2.46-7-2.46a25.62,25.62,0,0,0-6.47,1.08,9.89,9.89,0,0,1-1.38.34c-.41,0-.56-.15-.59-.75h-1.05v5.06h1.12v-.37c0-1.23.22-1.86.86-2.34a7.48,7.48,0,0,1,4.2-1.16c1.6,0,2.68.49,3,1.38a4.86,4.86,0,0,1,.22,1.94v1.11c-1.27-.11-2.16-.15-3.39-.15-5.39,0-9.08,1.42-9.08,5.18,0,3.38,2.91,5,6.4,5a10.71,10.71,0,0,0,6.33-1.9v1.45h10.49V33h-.67C233.22,33,233,32.53,233,31Zm-8.22-2.24c0,.38,0,.9,0,1.49a2.32,2.32,0,0,1-.41,1.45,2.16,2.16,0,0,1-1.67.71c-1.34,0-1.83-.78-1.83-2.86v-.71c0-2.16.78-3,2.9-3,.45,0,.41,0,1.05,0Z"/><path d="M260.76,31.19V25.34a16.14,16.14,0,0,0-.11-2.3,4.26,4.26,0,0,0-1.08-2.5,6.67,6.67,0,0,0-5.17-1.93,9.57,9.57,0,0,0-6.89,2.68v-2.2H236.16v1.27h1c2.27,0,2.61.22,2.61,1.86v9c0,1.63-.34,1.86-2.61,1.86h-.63v1.26h13.21V33.2h-.33c-1.08,0-1.45-.3-1.57-1,0-.34-.07-1-.07-1.68V25.23c0-2,.11-2.45.63-3.09a2.88,2.88,0,0,1,2.2-1c.85,0,1.45.26,1.67.85a21.51,21.51,0,0,1,.26,4.1v4.43c0,1.48-.07,2.08-.29,2.3a2,2,0,0,1-1.34.34h-.23v1.11h13.21V33.05h-.55C261.1,33.05,260.76,32.82,260.76,31.19Z"/><path d="M278.85,28.06v.37c0,1.94-.08,3.87-2.39,3.87a1.52,1.52,0,0,1-1.56-1.08,9.6,9.6,0,0,1-.18-2.83V20.54h5.21V19.09h-5.25v-6l-.45-.34L263.7,19.39v1.12h2.79v6.77a23.71,23.71,0,0,0,.11,2.83,5.06,5.06,0,0,0,1.16,3c1.08,1.19,2.79,1.71,5.28,1.71,3.31,0,5.47-.93,6.44-2.83a7.24,7.24,0,0,0,.52-3.53v-.45Z"/></g></g></svg>