<?xml version="1.0" encoding="utf-8"?>
<!-- Generator: Adobe Illustrator 19.2.0, SVG Export Plug-In . SVG Version: 6.00 Build 0)  -->
<svg version="1.1" id="Laag_1" xmlns="http://www.w3.org/2000/svg" xmlns:xlink="http://www.w3.org/1999/xlink" x="0px" y="0px"
	 viewBox="0 0 1000 140.7" style="enable-background:new 0 0 1000 140.7;" xml:space="preserve">
<path d="M59.2,110.4c0,7.2-0.8,10.3-3.5,12.6c-2,1.8-5,3-8.1,3c-9.8,0-9.8-8.1-9.8-16.5v-11c0-8.4,0-16.5,9.8-16.5
	c3.1,0,6.1,1.2,8.1,3c2.6,2.3,3.5,5.4,3.5,12.6C59.2,97.6,59.2,110.4,59.2,110.4z M99.7,130.7v-4.4h-3c-7.9,0-9.1-0.8-9.1-6.8V11.1
	h-43v4.4h5.3c7.9,0,9.1,0.7,9.1,6.1v59.7c-5.1-3.7-12.9-6.1-20.8-6.1c-15.6,0-30.7,10.9-30.7,28.7c0,17.7,15.4,28.7,30.7,28.7
	c9.8,0,16.9-2.5,22.1-7.1v5.1L99.7,130.7L99.7,130.7z M148.5,100.2h-19.4v-4.9c0-7.5,0.2-9.6,1.6-11.7c1.4-2.4,4.5-3.8,8.5-3.8
	c4.3,0,7.3,1.8,8.4,4.9c0.8,2.3,1,4.3,1,10.4L148.5,100.2z M176.1,105c-0.4-19.1-13.4-29.8-36.6-29.8c-24,0-39.1,11.1-39.1,28.9
	c0,17.2,15.9,28.7,39.7,28.7c15.2,0,27.5-5.5,35.3-15.9l-2.8-3c-7.4,8.7-17.2,13.8-27.3,13.8c-8.3,0-13.8-3.2-15.3-8.6
	c-0.7-2.3-1-6-1-11.4V105H176.1z M231.1,130.7L181.9,23.6c-1.2-2.5-2.3-4.7-3.2-5.7c-1.6-1.8-3.6-2.4-9.3-2.4h-4.1v-4.4h64.8v4.4
	h-2.3c-4.8,0-5.6,0.1-7.3,0.4c-2.9,0.5-4.4,2.2-4.4,4.7c0,2.2,1,4.8,3.7,11l27.5,61.7l25.6-57.8c1.8-4.1,4.8-10.6,4.8-14.2
	c0-4.4-2.9-5.7-13.6-5.7h-1v-4.4h37.3v4.4h-1.2c-4.3,0-5.5,0.1-7.1,0.5c-2.5,0.7-3.7,2.3-6.1,7.7l-48.6,107.1h-6.3L231.1,130.7z
	 M316.1,110.6c0,7.9-0.1,10.2-1,12.3c-1.3,3.3-4.8,5.4-9.5,5.4s-8.1-2-9.4-5.4c-0.8-2.2-1-4.4-1-12.3V97.2c0-7.9,0.1-10.2,1-12.3
	c1.3-3.3,4.8-5.4,9.4-5.4c4.7,0,8.1,2,9.5,5.4c0.8,2.2,1,4.4,1,12.3V110.6z M346,103.7c0-17.3-15.9-28.7-40.3-28.7
	c-24.6,0-40.3,11.2-40.3,29c0,17.7,15.7,28.9,40.3,28.9C330.4,132.9,346,121.6,346,103.7z M347.5,126.3h3c7.9,0,9.1-0.7,9.1-6.1
	V21.6c0-5.4-1.2-6.1-9.1-6.1h-5.3v-4.4h43.1v109c0,5.5,1.3,6.2,9.2,6.2h3v4.4h-53L347.5,126.3L347.5,126.3z M465.6,130.8l-20.1-26.2
	v14.8c0,6,1.3,6.9,9.2,6.9h1.6v4.4h-51.6v-4.4h3c7.9,0,9.1-0.8,9.1-6.8v-98c0-5.4-1.2-6.1-9.1-6.1h-5.3V11h43.1v91l12.8-9.3
	c1.6-1.2,4.1-3,5.3-4.1c2-1.8,2.8-2.9,2.8-4.2c0-1.1-0.7-1.8-1.6-2.2c-1-0.4-1.6-0.5-5.7-0.5H455v-4.4h41.9v4.4
	c-13.6,0.4-22.4,2.6-28.6,7.2l26.2,32.9c1.9,2.4,3.2,3.6,4.4,3.9c1.3,0.4,2.4,0.5,3.7,0.5c1,0.1,1.8,0,1.8,0v4.4L465.6,130.8
	L465.6,130.8z M542.6,132.4c-9,0-16.5-1.4-26.1-4.7c-1.1-0.4-1.6-0.6-2.3-0.6c-1.6,0-2,1.1-2.2,3.6h-4.1v-20.5h4.1v0.5
	c0,4.3,0.7,6.8,2.5,8.9c3.4,3.8,10.1,6.8,16.4,6.8c4.8,0,7.3-1.7,7.3-4.4c0-2.5-1.8-4.2-6.6-6.3l-4.2-1.9
	c-13.3-5.9-18.4-11.1-18.4-19.3c0-11.7,11.1-18.9,29.2-18.9c6.9,0,13,1.1,20.2,3.2c2.4,0.7,3,0.8,3.9,0.8c1.7,0,2.3-0.7,2.6-2.3h3.9
	V95h-3.9v-1.3c0-4.2-0.6-5.7-2.6-7.5c-3-2.6-8.7-4.5-13.9-4.5c-4.7,0-7.2,1.7-7.2,4.5s1.7,4.2,8.7,6.9l7.2,2.8
	c11.6,4.5,15.7,8.9,15.7,16.7C573,124.9,561.5,132.4,542.6,132.4L542.6,132.4z M634.3,130.8l-20.1-26.2v14.8c0,6,1.3,6.9,9.2,6.9
	h1.6v4.4h-51.6v-4.4h3c7.9,0,9.1-0.8,9.1-6.8v-98c0-5.4-1.2-6.1-9.1-6.1h-5.3V11h43.1v91l12.8-9.3c1.6-1.2,4.1-3,5.3-4.1
	c2-1.8,2.8-2.9,2.8-4.2c0-1.1-0.7-1.8-1.5-2.2c-1-0.4-1.6-0.5-5.7-0.5h-4.1v-4.4h41.9v4.4c-13.6,0.4-22.4,2.6-28.6,7.2l26.2,32.9
	c1.9,2.4,3.2,3.6,4.4,3.9c1.3,0.4,2.4,0.5,3.7,0.5c1,0.1,1.8,0,1.8,0v4.4L634.3,130.8L634.3,130.8z M726.3,126.3h3.5v4.4h-52.4v-4.4
	h2.3c7.9,0,9.1-0.7,9.1-6.1V88.1c0-5.4-1.2-6.1-9.1-6.1H676v-4.4h40.1v13.9c4.1-10.2,11.5-16.3,21.1-16.3c10.7,0,17,6.8,17,17
	c0,9.7-6.1,16.2-15.3,16.2c-8.9,0-15.1-5.7-15.1-13.8c0-1.9,0.2-3.6,1.2-5.4c0.5-1,0.3-1.1,0.3-1.3c0-0.3-0.5-0.6-0.7-0.6
	c-1,0-2.2,1.1-3.5,3.1s-2.5,4.9-3.1,7.3c-0.6,2.6-1,6.5-1,11.5v10.9C717.1,125.4,718.4,126.3,726.3,126.3L726.3,126.3z M800.1,111.6
	c0,1.3,0,3.2-0.1,5.3c-0.1,2.5-0.5,3.8-1.4,5c-1.3,1.6-3.5,2.5-5.9,2.5c-4.7,0-6.3-2.7-6.3-10v-2.5c0-7.5,2.8-10.4,10.2-10.4
	c1.6,0,1.4,0,3.6,0.1L800.1,111.6z M837.5,130.7v-4.4h-2.4c-5.4,0-6.3-1.7-6.3-6.8v-17.9c0-6.9-0.1-9-0.8-11.5
	c-0.6-2.3-1.7-4.4-3.2-6.2c-4.5-5.7-12.9-8.6-24.5-8.6c-6.8,0-14.5,1.4-22.6,3.7c-1,0.2-3.8,1.2-4.8,1.2c-1.4,0-1.9-0.6-2-2.6h-3.6
	v17.7h4V94c0-4.3,0.8-6.6,3-8.2c3-2.4,9-4.1,14.7-4.1c5.6,0,9.3,1.7,10.5,4.8c0.6,1.5,0.7,3.1,0.7,6.8v4c-3.9-0.3-7.9-0.5-11.8-0.5
	c-18.8,0-31.7,4.9-31.7,18.1c0,11.8,10.2,17.6,22.4,17.6c8,0,15.9-2,22.1-6.6v5L837.5,130.7L837.5,130.7z M890.9,130.7v-4h0.7
	c2.4,0,3.8-0.4,4.7-1.2c0.8-0.8,1.1-2.9,1.1-8V97.3c0-6.5-0.1-8.2-0.7-9.6c-0.8-2-2.9-3-5.9-3c-3.1,0-6.1,1.3-7.9,3.5
	c-1.8,2.3-2.2,3.9-2.2,10.8v18.5c0,2.4,0.1,4.7,0.2,5.9c0.3,2.4,1.7,3.4,5.5,3.4h1.2v4h-46.2v-4.4h2.3c7.9,0,9.1-0.7,9.1-6.5V88.5
	c0-5.7-1.2-6.5-9.1-6.5h-3.6v-4.4h39.6v7.7c6.5-6.2,14.6-9.3,24-9.3c7.9,0,14.1,2.4,18.1,6.7c2.2,2.4,3.4,5.4,3.8,8.7
	c0.2,2.3,0.4,3.3,0.4,8v20.5c0,5.7,1.2,6.5,9.1,6.5h1.9v4.4L890.9,130.7L890.9,130.7z M991.5,122.9c-3.3,6.6-10.9,9.9-22.5,9.9
	c-8.7,0-14.7-1.8-18.4-6c-2.4-2.6-3.7-6.3-4.1-10.6c-0.2-2.4-0.4-4.3-0.4-9.9V82.4h-9.8v-3.9l36.9-23l1.5,1.2v20.9H993v4.8h-18.3
	V110c0,3.5-0.2,7.4,0.6,9.9c0.7,2.3,2.5,3.7,5.5,3.7c8,0,8.4-6.8,8.4-13.5v-1.3h4.1v1.8C993.3,117.2,992.9,120.2,991.5,122.9z"/>
</svg>
